<svg width="26" height="29" viewBox="0 0 26 29" fill="none" xmlns="http://www.w3.org/2000/svg">
<path d="M23.3788 3.16866L23.3788 2.66866L23.3788 3.16866ZM25 4.73458L24.5 4.73458V4.73458H25ZM1 4.73458L0.5 4.73458V4.73458L1 4.73458ZM2.62122 3.16865L2.62122 3.66865L2.62122 3.16865ZM23.3788 28.4641L23.3788 27.9641H23.3788V28.4641ZM25 26.8982L25.5 26.8982V26.8982H25ZM6.61877 24.6013L7.11877 24.6013L7.11877 24.6013L6.61877 24.6013ZM4.99572 23.0354L4.99572 23.5354L4.99626 23.5354L4.99572 23.0354ZM1.62426 23.6453L1.27618 24.0042L1.62426 23.6453ZM8.65267 28.4641L8.65267 28.9641H8.65267V28.4641ZM5.14191 27.0508L4.79462 27.4106L4.79462 27.4106L5.14191 27.0508ZM1.81356 10.6981C1.53742 10.6981 1.31356 10.9219 1.31356 11.1981C1.31356 11.4742 1.53742 11.6981 1.81356 11.6981V10.6981ZM24.7966 11.6981C25.0728 11.6981 25.2966 11.4742 25.2966 11.1981C25.2966 10.9219 25.0728 10.6981 24.7966 10.6981V11.6981ZM7.93664 6.41326C7.93664 6.68941 8.1605 6.91326 8.43664 6.91326C8.71278 6.91326 8.93664 6.68941 8.93664 6.41326H7.93664ZM8.93664 0.492188C8.93664 0.216045 8.71278 -0.0078125 8.43664 -0.0078125C8.1605 -0.0078125 7.93664 0.216045 7.93664 0.492188H8.93664ZM17.6994 6.41326C17.6994 6.68941 17.9232 6.91326 18.1994 6.91326C18.4755 6.91326 18.6994 6.68941 18.6994 6.41326H17.6994ZM18.6994 0.492188C18.6994 0.216045 18.4755 -0.0078125 18.1994 -0.0078125C17.9232 -0.0078125 17.6994 0.216045 17.6994 0.492188H18.6994ZM8.32203 16.051C8.04589 16.051 7.82203 16.2749 7.82203 16.551C7.82203 16.8272 8.04589 17.051 8.32203 17.051V16.051ZM8.52542 17.051C8.80157 17.051 9.02542 16.8272 9.02542 16.551C9.02542 16.2749 8.80157 16.051 8.52542 16.051V17.051ZM8.32203 20.5804C8.04589 20.5804 7.82203 20.8043 7.82203 21.0804C7.82203 21.3566 8.04589 21.5804 8.32203 21.5804V20.5804ZM8.52542 21.5804C8.80157 21.5804 9.02542 21.3566 9.02542 21.0804C9.02542 20.8043 8.80157 20.5804 8.52542 20.5804V21.5804ZM13.2034 16.051C12.9272 16.051 12.7034 16.2749 12.7034 16.551C12.7034 16.8272 12.9272 17.051 13.2034 17.051V16.051ZM13.4068 17.051C13.6829 17.051 13.9068 16.8272 13.9068 16.551C13.9068 16.2749 13.6829 16.051 13.4068 16.051V17.051ZM13.2034 20.5804C12.9272 20.5804 12.7034 20.8043 12.7034 21.0804C12.7034 21.3566 12.9272 21.5804 13.2034 21.5804V20.5804ZM13.4068 21.5804C13.6829 21.5804 13.9068 21.3566 13.9068 21.0804C13.9068 20.8043 13.6829 20.5804 13.4068 20.5804V21.5804ZM18.0847 16.051C17.8086 16.051 17.5847 16.2749 17.5847 16.551C17.5847 16.8272 17.8086 17.051 18.0847 17.051V16.051ZM18.2881 17.051C18.5643 17.051 18.7881 16.8272 18.7881 16.551C18.7881 16.2749 18.5643 16.051 18.2881 16.051V17.051ZM18.0847 20.5804C17.8086 20.5804 17.5847 20.8043 17.5847 21.0804C17.5847 21.3566 17.8086 21.5804 18.0847 21.5804V20.5804ZM18.2881 21.5804C18.5643 21.5804 18.7881 21.3566 18.7881 21.0804C18.7881 20.8043 18.5643 20.5804 18.2881 20.5804V21.5804ZM23.3788 27.9641H8.65267V28.9641H23.3788V27.9641ZM1.5 22.1614L1.5 4.73458L0.5 4.73458L0.5 22.1614L1.5 22.1614ZM2.62122 3.66865L23.3788 3.66866L23.3788 2.66866L2.62122 2.66865L2.62122 3.66865ZM24.5 4.73458V26.8982H25.5V4.73458H24.5ZM23.3788 3.66866C24.0145 3.66866 24.5 4.1621 24.5 4.73458L25.5 4.73458C25.5 3.57739 24.5338 2.66866 23.3788 2.66866L23.3788 3.66866ZM1.5 4.73458C1.5 4.1621 1.98549 3.66865 2.62122 3.66865L2.62122 2.66865C1.4662 2.66865 0.5 3.57739 0.5 4.73458L1.5 4.73458ZM5.48919 26.6911C4.34463 25.5861 2.81566 24.1042 1.97234 23.2864L1.27618 24.0042C2.11951 24.8221 3.64919 26.3047 4.79462 27.4106L5.48919 26.6911ZM23.3788 28.9641C24.5338 28.9641 25.5 28.0554 25.5 26.8982L24.5 26.8982C24.5 27.4707 24.0145 27.9641 23.3788 27.9641L23.3788 28.9641ZM6.11877 24.6013L6.11877 28.4922L7.11877 28.4922L7.11877 24.6013L6.11877 24.6013ZM1 23.5354L4.99572 23.5354L4.99572 22.5354L1 22.5354L1 23.5354ZM7.11877 24.6013C7.11877 23.4432 6.15109 22.5342 4.99517 22.5354L4.99626 23.5354C5.63253 23.5347 6.11877 24.0284 6.11877 24.6013L7.11877 24.6013ZM0.5 22.1614C0.5 22.8559 0.77747 23.5206 1.27618 24.0042L1.97234 23.2864C1.6705 22.9937 1.5 22.5891 1.5 22.1614L0.5 22.1614ZM8.65267 27.9641C8.17314 27.9641 7.56335 27.8272 6.96717 27.5878C6.37088 27.3484 5.83557 27.0255 5.48919 26.6911L4.79462 27.4106C5.2611 27.8609 5.91952 28.2447 6.59458 28.5158C7.26974 28.7869 8.00891 28.9641 8.65267 28.9641L8.65267 27.9641ZM1.81356 11.6981H24.7966V10.6981H1.81356V11.6981ZM8.93664 6.41326V0.492188H7.93664V6.41326H8.93664ZM18.6994 6.41326V0.492188H17.6994V6.41326H18.6994ZM8.32203 17.051H8.52542V16.051H8.32203V17.051ZM8.32203 21.5804H8.52542V20.5804H8.32203V21.5804ZM13.2034 17.051H13.4068V16.051H13.2034V17.051ZM13.2034 21.5804H13.4068V20.5804H13.2034V21.5804ZM18.0847 17.051H18.2881V16.051H18.0847V17.051ZM18.0847 21.5804H18.2881V20.5804H18.0847V21.5804Z" fill="#979797"/>
</svg>
