<svg width="28" height="28" viewBox="0 0 28 28" fill="none" xmlns="http://www.w3.org/2000/svg">
<path d="M27.4873 11.1184L27.4784 11.1648V11.212C27.4784 11.356 27.4117 11.4582 27.3265 11.5029L27.2564 11.5397L27.2011 11.5962L21.4656 17.4657L21.2881 17.6472L21.33 17.8976L22.7283 26.2575C22.7284 26.2581 22.7285 26.2587 22.7286 26.2593C22.8238 26.8639 22.4556 27.3278 22.0445 27.4399H22.0442H22.0436H22.043H22.0424H22.0418H22.0412H22.0406H22.04H22.0395H22.0389H22.0383H22.0377H22.0372H22.0366H22.036H22.0355H22.0349H22.0343H22.0338H22.0332H22.0327H22.0321H22.0316H22.031H22.0305H22.0299H22.0294H22.0288H22.0283H22.0278H22.0272H22.0267H22.0262H22.0256H22.0251H22.0246H22.024H22.0235H22.023H22.0225H22.022H22.0214H22.0209H22.0204H22.0199H22.0194H22.0189H22.0184H22.0179H22.0174H22.0168H22.0163H22.0158H22.0153H22.0148H22.0144H22.0139H22.0134H22.0129H22.0124H22.0119H22.0114H22.0109H22.0104H22.01H22.0095H22.009H22.0085H22.008H22.0076H22.0071H22.0066H22.0061H22.0057H22.0052H22.0047H22.0043H22.0038H22.0033H22.0029H22.0024H22.0019H22.0015H22.001H22.0005H22.0001H21.9996H21.9992H21.9987H21.9983H21.9978H21.9974H21.9969H21.9965H21.996H21.9956H21.9951H21.9947H21.9942H21.9938H21.9933H21.9929H21.9925H21.992H21.9916H21.9911H21.9907H21.9903H21.9898H21.9894H21.989H21.9885H21.9881H21.9877H21.9872H21.9868H21.9864H21.986H21.9855H21.9851H21.9847H21.9842H21.9838H21.9834H21.983H21.9825H21.9821H21.9817H21.9813H21.9809H21.9804H21.98H21.9796H21.9792H21.9788H21.9783H21.9779H21.9775H21.9771H21.9767H21.9762H21.9758H21.9754H21.975H21.9746H21.9742H21.9738H21.9733H21.9729H21.9725H21.9721H21.9717H21.9713H21.9709H21.9705H21.97H21.9696H21.9692H21.9688H21.9684H21.968H21.9676H21.9672H21.9668H21.9663H21.9659H21.9655H21.9651H21.9647H21.9643H21.9639H21.9635H21.9631H21.9627H21.9622H21.9618H21.9614H21.961H21.9606H21.9602H21.9598H21.9594H21.959H21.9586H21.9581H21.9577H21.9573H21.9569H21.9565H21.9561H21.9557H21.9553H21.9548H21.9544H21.954H21.9536H21.9532H21.9528H21.9524H21.952H21.9515H21.9511H21.9507H21.9503H21.9499H21.9495H21.949H21.9486H21.9482H21.9478H21.9474H21.947H21.9465H21.9461H21.9457H21.9453H21.9449H21.9444H21.944H21.9436H21.9432H21.9427H21.9423H21.9419H21.9415H21.941H21.9406H21.9402H21.9397H21.9393H21.9389H21.9385H21.938H21.9376H21.9372H21.9367H21.9363H21.9359H21.9354H21.935H21.9345H21.9341H21.9337H21.9332H21.9328H21.9323H21.9319H21.9314H21.931H21.9306H21.9301H21.9297H21.9292H21.9288H21.9283H21.9279H21.9274H21.9269H21.9265H21.926H21.9256H21.9251H21.9247H21.9242H21.9237H21.9233H21.9228H21.9223H21.9219H21.9214H21.9209H21.9205H21.92H21.9195H21.919H21.9186H21.9181H21.9176H21.9171H21.9167H21.9162H21.9157H21.9152H21.9147H21.9142H21.9137H21.9133H21.9128H21.9123H21.9118H21.9113H21.9108H21.9103H21.9098H21.9093H21.9088H21.9083H21.9078H21.9073H21.9067H21.9062H21.9057H21.9052H21.9047H21.9042H21.9037H21.9031H21.9026H21.9021H21.9016H21.901H21.9005H21.9H21.8994H21.8989H21.8984H21.8978H21.8973H21.8967H21.8962H21.8956H21.8951H21.8946H21.894H21.8934H21.8929H21.8923H21.8918H21.8912H21.8906H21.8901H21.8895H21.889H21.8884H21.8878H21.8872H21.8867H21.8861H21.8855H21.8849H21.8843H21.8837H21.8831H21.8826H21.882H21.8814H21.8808H21.8802H21.8796H21.879H21.8784H21.8777H21.8771H21.8765H21.8759H21.8753H21.8747H21.874H21.8734H21.8728H21.8722H21.8715H21.8709H21.8703H21.8696H21.869H21.8683H21.8677H21.867H21.8664H21.8657H21.8651H21.8644H21.8638H21.8631H21.8624H21.8618H21.8611H21.8604H21.8597H21.8591H21.8584H21.8577H21.857H21.8563H21.8556H21.8549H21.8542H21.8535H21.8528H21.8521H21.8514H21.8507H21.85H21.8493H21.8486H21.8478H21.8471H21.8464H21.8456H21.8449H21.8442H21.8434H21.8427H21.8419H21.8412H21.8405H21.8397H21.8389H21.8382H21.8374H21.8367H21.8359H21.8351H21.8343H21.8336H21.8328H21.832H21.8312H21.8304H21.8296H21.8288H21.828H21.8272H21.8264H21.8256H21.8248H21.824H21.8232C21.6736 27.4399 21.5734 27.4388 21.4951 27.4271C21.4792 27.4247 21.4674 27.4223 21.459 27.4203L21.433 27.393L21.3664 27.356L14.232 23.3942L13.9892 23.2594L13.7465 23.3942L6.61197 27.356L6.59999 27.3627L6.58839 27.37C6.18156 27.626 5.64964 27.4992 5.34008 26.9749C5.26642 26.811 5.2571 26.6396 5.25638 26.367L6.6484 18.0443L6.69028 17.794L6.51286 17.6124L0.779651 11.7454C0.406145 11.3517 0.406784 10.7763 0.781568 10.3831L0.836664 10.3254L0.871021 10.2533C0.902581 10.1871 0.965172 10.0979 1.25903 10.0979H1.29564L1.33185 10.0926L9.3057 8.9187L9.57429 8.87916L9.68741 8.63237L13.1746 1.02407C13.4843 0.500615 14.0158 0.374125 14.4223 0.629999L14.439 0.640484L14.4564 0.649627C14.5653 0.706695 14.6206 0.749966 14.659 0.790289C14.6981 0.831232 14.7409 0.891373 14.7969 1.00892L18.4341 8.63918L18.5488 8.87987L18.8126 8.9187L26.7865 10.0926L26.8227 10.0979H26.8593C26.9902 10.0979 27.1682 10.1852 27.3188 10.409C27.4672 10.6296 27.5287 10.901 27.4873 11.1184ZM21.4423 27.4153C21.4422 27.4153 21.4426 27.4155 21.4433 27.4158L21.4423 27.4153Z" stroke="#979797"/>
</svg>
