<svg width="30" height="29" viewBox="0 0 30 29" fill="none" xmlns="http://www.w3.org/2000/svg">
<path d="M3.19766 13.9682L3.19766 13.4682L3.19766 13.9682ZM1.82579 10.1684L2.13333 10.5626L2.13333 10.5626L1.82579 10.1684ZM28.1742 10.1684L27.8667 10.5626L27.8667 10.5626L28.1742 10.1684ZM26.8023 13.9682L26.8023 14.4682L26.8023 13.9682ZM16.3719 0.96124L16.6794 0.567011L16.6794 0.567011L16.3719 0.96124ZM13.6281 0.961241L13.3206 0.567011L13.3206 0.567011L13.6281 0.961241ZM15 20.2971L15 20.7971L15 20.2971ZM18.85 23.9954L19.35 23.9954L19.35 23.9954L18.85 23.9954ZM11.15 23.9954L10.65 23.9954V23.9954H11.15ZM10.65 28.4922C10.65 28.7683 10.8739 28.9922 11.15 28.9922C11.4261 28.9922 11.65 28.7683 11.65 28.4922H10.65ZM18.35 28.4922C18.35 28.7683 18.5739 28.9922 18.85 28.9922C19.1261 28.9922 19.35 28.7683 19.35 28.4922L18.35 28.4922ZM25.2473 13.7447V26.3578H26.2473V13.7447H25.2473ZM23.554 27.9922H6.8847V28.9922H23.554V27.9922ZM5.19137 26.3578V13.7447H4.19137V26.3578H5.19137ZM6.8847 27.9922C5.93658 27.9922 5.19137 27.2477 5.19137 26.3578H4.19137C4.19137 27.8255 5.41013 28.9922 6.8847 28.9922V27.9922ZM25.2473 26.3578C25.2473 27.2477 24.5021 27.9922 23.554 27.9922V28.9922C25.0285 28.9922 26.2473 27.8255 26.2473 26.3578H25.2473ZM16.0643 1.35547L27.8667 10.5626L28.4818 9.77416L16.6794 0.567011L16.0643 1.35547ZM26.8023 13.4682L3.19766 13.4682L3.19766 14.4682L26.8023 14.4682L26.8023 13.4682ZM2.13333 10.5626L13.9357 1.35547L13.3206 0.567011L1.51825 9.77416L2.13333 10.5626ZM3.19766 13.4682C1.56988 13.4682 0.916138 11.5122 2.13333 10.5626L1.51825 9.77416C-0.4982 11.3472 0.681042 14.4682 3.19766 14.4682L3.19766 13.4682ZM27.8667 10.5626C29.0839 11.5122 28.4301 13.4682 26.8023 13.4682L26.8023 14.4682C29.319 14.4682 30.4982 11.3472 28.4818 9.77416L27.8667 10.5626ZM16.6794 0.567011C15.697 -0.19942 14.303 -0.19942 13.3206 0.567011L13.9357 1.35547C14.5566 0.871093 15.4434 0.871093 16.0643 1.35547L16.6794 0.567011ZM15 20.7971C16.8693 20.7971 18.35 22.2477 18.35 23.9954L19.35 23.9954C19.35 21.658 17.3833 19.7971 15 19.7971L15 20.7971ZM11.65 23.9954C11.65 22.2477 13.1307 20.7971 15 20.7971L15 19.7971C12.6167 19.7971 10.65 21.658 10.65 23.9954L11.65 23.9954ZM11.65 28.4922V23.9954H10.65V28.4922H11.65ZM18.35 23.9954L18.35 28.4922L19.35 28.4922L19.35 23.9954L18.35 23.9954Z" fill="#979797"/>
</svg>
